Coordinates
version=1
nRows=7
nColumns=40
inDegrees=yes

Units are S.I. units (second, meters, Newtons, ...)
If the header above contains a line with 'inDegrees', this indicates whether rotational values are in degrees (yes) or radians (no).

endheader
time	pelvis_tilt	pelvis_list	pelvis_rotation	pelvis_tx	pelvis_ty	pelvis_tz	hip_flexion_r	hip_adduction_r	hip_rotation_r	knee_angle_r	knee_angle_r_beta	ankle_angle_r	subtalar_angle_r	mtp_angle_r	hip_flexion_l	hip_adduction_l	hip_rotation_l	knee_angle_l	knee_angle_l_beta	ankle_angle_l	subtalar_angle_l	mtp_angle_l	lumbar_extension	lumbar_bending	lumbar_rotation	arm_flex_r	arm_add_r	arm_rot_r	elbow_flex_r	pro_sup_r	wrist_flex_r	wrist_dev_r	arm_flex_l	arm_add_l	arm_rot_l	elbow_flex_l	pro_sup_l	wrist_flex_l	wrist_dev_l
      0.36000000	     -3.26550571	     -4.36788137	     -0.19820326	     -0.71729095	      1.00131289	      0.28534935	      4.44505050	      7.17558784	     -7.98808579	     10.57358493	      0.18454387	      0.81992905	      0.00000000	      0.00000000	     23.89807973	    -12.58283601	    -11.44527399	     52.32789818	      0.91329411	     -2.42284515	      0.00000000	      0.00000000	     -9.06803318	      3.62554642	      3.56744469	    -10.37292840	     -0.71562149	    -16.21290806	     56.06895163	     88.49335930	     26.61476300	     29.47661534	     -7.32735611	     -4.96441583	    -12.27346224	     60.23631329	     89.32878685	     27.57106539	     31.93764666
      0.37000000	     -2.97215750	     -4.04648424	     -0.69960395	     -0.70579571	      1.00163630	      0.28626366	      3.08209644	      6.95090390	     -7.39134870	      9.99606236	      0.17446420	      1.16763923	      0.00000000	      0.00000000	     23.92932225	    -12.51625108	    -12.89979015	     49.72903371	      0.86793537	     -2.23612176	      0.00000000	      0.00000000	     -9.49383834	      3.04897802	      3.88569434	     -9.59366437	     -0.98143210	    -15.39142573	     56.30425963	     88.44506007	     26.50750320	     29.14791150	     -8.12576046	     -4.87437429	    -13.42553217	     60.18123797	     89.32857191	     27.57203225	     31.91346445
      0.38000000	     -3.18427776	     -4.08607231	     -0.75058775	     -0.69435344	      1.00076248	      0.28627093	      2.28458688	      7.05312166	     -7.45067012	      9.40517138	      0.16415121	      1.46014274	      0.00000000	      0.00000000	     24.75391886	    -12.56223851	    -13.66713402	     47.22825665	      0.82428858	     -2.01741722	      0.00000000	      0.00000000	     -9.24641626	      3.01276683	      4.19479673	     -9.26274212	     -1.21886696	    -15.12677466	     56.93417992	     88.40986415	     26.51434124	     29.03926302	     -8.61825263	     -4.77473053	    -14.02835176	     59.60887701	     89.32550134	     27.50311809	     31.94815315
      0.39000000	     -2.86697039	     -3.71002949	     -1.35375577	     -0.68296961	      1.00069090	      0.28706224	      0.98428332	      6.71161192	     -6.71154040	      9.00790569	      0.15721761	      1.92080657	      0.00000000	      0.00000000	     24.55367988	    -12.40766945	    -15.43169658	     44.19378818	      0.77132711	     -2.03773091	      0.00000000	      0.00000000	     -9.70244168	      2.37310997	      4.62901437	     -8.48464766	     -1.47748570	    -14.37721177	     57.23732052	     88.35729653	     26.40206037	     28.65041756	     -9.32912291	     -4.69753536	    -15.03076618	     59.52418158	     89.32472699	     27.44060910	     31.86426731
      0.40000000	     -2.71793684	     -3.52832859	     -1.66977471	     -0.67167293	      1.00006618	      0.28720064	     -0.11671973	      6.53464624	     -6.41085025	      8.60059470	      0.15010870	      2.30897097	      0.00000000	      0.00000000	     24.64709293	    -12.23824504	    -16.75621839	     41.12049492	      0.71768803	     -2.09003766	      0.00000000	      0.00000000	     -9.95226049	      2.02773722	      4.91884953	     -7.83508663	     -1.75871799	    -13.78929199	     57.70370690	     88.31364609	     26.22076102	     28.32622747	     -9.90280877	     -4.56329889	    -15.91724555	     59.24914384	     89.32452598	     27.37181523	     31.85821885
      0.41000000	     -2.75849057	     -3.35311742	     -1.94717436	     -0.66044273	      0.99899109	      0.28712716	     -0.95026121	      6.33949188	     -6.16207406	      8.31898659	      0.14519371	      2.74561667	      0.00000000	      0.00000000	     24.92241345	    -11.98298573	    -17.99448097	     37.91590406	      0.66175736	     -2.35111485	      0.00000000	      0.00000000	     -9.97238286	      1.72322010	      5.24338909	     -7.27268988	     -2.01906428	    -13.37639433	     58.21692147	     88.26946889	     26.12491416	     28.09324646	    -10.40813290	     -4.45713513	    -16.61232152	     58.87318097	     89.32473953	     27.29207489	     31.83070765
      0.42000000	     -3.00056711	     -3.65825427	     -1.94432392	     -0.64935078	      0.99720943	      0.28646163	     -1.52367537	      6.64645181	     -6.22844304	      8.12742599	      0.14185034	      3.15035960	      0.00000000	      0.00000000	     25.61141362	    -12.00602578	    -18.51858858	     34.86382529	      0.60848854	     -2.38899060	      0.00000000	      0.00000000	     -9.79222387	      2.02500651	      5.48922325	     -6.89687675	     -2.34710433	    -13.15672025	     59.02720430	     88.24859520	     26.14201127	     27.98606116	    -10.82454331	     -4.28799627	    -17.13310346	     58.44916746	     89.32217438	     27.21397917	     31.87795393
